<?xml version="1.0" encoding="UTF-8" standalone="no"?>
<!-- Created with Inkscape (http://www.inkscape.org/) -->

<svg
   xmlns:dc="http://purl.org/dc/elements/1.1/"
   xmlns:cc="http://creativecommons.org/ns#"
   xmlns:rdf="http://www.w3.org/1999/02/22-rdf-syntax-ns#"
   xmlns:svg="http://www.w3.org/2000/svg"
   xmlns="http://www.w3.org/2000/svg"
   xmlns:sodipodi="http://sodipodi.sourceforge.net/DTD/sodipodi-0.dtd"
   xmlns:inkscape="http://www.inkscape.org/namespaces/inkscape"
   width="210mm"
   height="297mm"
   viewBox="0 0 744.09448819 1052.3622047"
   id="svg2"
   version="1.1"
   inkscape:version="0.91 r13725"
   sodipodi:docname="monogram-base.svg"
   enable-background="new"
   inkscape:export-filename="/Users/vishal/builds/hemawedsvishal.com/public/assets/favicon.png"
   inkscape:export-xdpi="28.800003"
   inkscape:export-ydpi="28.800003">
  <defs
     id="defs4">
    <filter
       inkscape:collect="always"
       style="color-interpolation-filters:sRGB"
       id="filter4636">
      <feBlend
         inkscape:collect="always"
         mode="lighten"
         in2="BackgroundImage"
         id="feBlend4638" />
    </filter>
  </defs>
  <sodipodi:namedview
     id="base"
     pagecolor="#ddd8d8"
     bordercolor="#666666"
     borderopacity="1.0"
     inkscape:pageopacity="0"
     inkscape:pageshadow="2"
     inkscape:zoom="0.68894922"
     inkscape:cx="214.41385"
     inkscape:cy="413.71145"
     inkscape:document-units="px"
     inkscape:current-layer="layer5"
     showgrid="false"
     inkscape:window-width="1280"
     inkscape:window-height="751"
     inkscape:window-x="104"
     inkscape:window-y="27"
     inkscape:window-maximized="0"
     inkscape:object-nodes="true" />
  <metadata
     id="metadata7">
    <rdf:RDF>
      <cc:Work
         rdf:about="">
        <dc:format>image/svg+xml</dc:format>
        <dc:type
           rdf:resource="http://purl.org/dc/dcmitype/StillImage" />
        <dc:title />
      </cc:Work>
    </rdf:RDF>
  </metadata>
  <g
     inkscape:label="Orange"
     inkscape:groupmode="layer"
     id="layer1"
     style="display:inline;filter:url(#filter4636)">
    <text
       xml:space="preserve"
       style="font-style:normal;font-weight:normal;font-size:40px;line-height:125%;font-family:sans-serif;letter-spacing:0px;word-spacing:0px;fill:#000000;fill-opacity:1;stroke:none;stroke-width:1px;stroke-linecap:butt;stroke-linejoin:miter;stroke-opacity:1"
       x="43.283596"
       y="546.8761"
       id="text4221"
       sodipodi:linespacing="125%"
       inkscape:export-xdpi="90"
       inkscape:export-ydpi="90"><tspan
         sodipodi:role="line"
         id="tspan4223"
         x="43.283596"
         y="546.8761" /></text>
    <g
       style="display:inline;stroke-width:1;stroke-miterlimit:4;stroke-dasharray:none"
       id="g4539"
       inkscape:export-filename="/Users/vishal/builds/hemawedsvishal.com/public/assets/monogram_brand.png"
       inkscape:export-xdpi="16.747229"
       inkscape:export-ydpi="16.747229">
      <path
         id="path4463"
         d="m 456.17578,384.13281 0,-51.50586 -51.50586,0 51.50586,51.50586 z"
         style="fill:#ff7f2a;fill-rule:evenodd;stroke:none;stroke-width:1;stroke-linecap:butt;stroke-linejoin:miter;stroke-opacity:1;stroke-miterlimit:4;stroke-dasharray:none"
         inkscape:connector-curvature="0" />
      <path
         id="path4459"
         d="m 404.67188,532.62695 51.5039,0 0,-51.50586 -51.5039,51.50586 z"
         style="fill:#ff7f2a;fill-rule:evenodd;stroke:none;stroke-width:1;stroke-linecap:butt;stroke-linejoin:miter;stroke-opacity:1;stroke-miterlimit:4;stroke-dasharray:none"
         inkscape:connector-curvature="0" />
      <path
         id="path4455"
         d="m 256.17578,481.11719 0,51.50976 51.50781,0 -51.50781,-51.50976 z"
         style="fill:#ff7f2a;fill-rule:evenodd;stroke:none;stroke-width:1;stroke-linecap:butt;stroke-linejoin:miter;stroke-opacity:1;stroke-miterlimit:4;stroke-dasharray:none"
         inkscape:connector-curvature="0" />
      <path
         id="path4451"
         d="m 307.6875,332.62695 -51.51172,0 0,51.50977 51.51172,-51.50977 z"
         style="fill:#ff7f2a;fill-rule:evenodd;stroke:none;stroke-width:1;stroke-linecap:butt;stroke-linejoin:miter;stroke-opacity:1;stroke-miterlimit:4;stroke-dasharray:none"
         inkscape:connector-curvature="0" />
    </g>
  </g>
  <g
     inkscape:groupmode="layer"
     id="layer5"
     inkscape:label="Teal"
     style="display:inline">
    <path
       style="display:inline;fill:#00d4aa;stroke:none;stroke-width:10;stroke-miterlimit:4;stroke-dasharray:none;stroke-opacity:1"
       d="M 356.17773,298.27734 221.82617,432.62695 356.17773,566.97852 490.52734,432.62695 356.17773,298.27734 Z m -6.57226,93.25196 c 1.97245,0 4.26854,0.30095 6.88867,0.90234 2.64957,0.6014 5.66718,1.50227 9.05274,2.70508 l 0,13.6914 -4.99024,0 c -0.41215,-3.78528 -1.56118,-6.66929 -3.44531,-8.65039 -1.88414,-1.98108 -4.44524,-2.9707 -7.6836,-2.9707 -3.03228,0 -5.49086,1.00893 -7.375,3.02539 -1.88413,1.98108 -2.82617,4.56221 -2.82617,7.7461 0,2.15796 0.50101,4.31665 1.50196,6.4746 1.00094,2.1226 3.092,5.18215 6.27148,9.17969 L 369.78516,452.5 c 2.03133,-2.83013 3.62138,-5.87232 4.76953,-9.12695 1.17759,-3.29002 1.91264,-6.79134 2.20703,-10.50586 l -7.94727,0 0,-5.67969 20.88672,0 0,5.67969 -7.5957,0 c -0.50047,4.59893 -1.48701,8.89698 -2.95899,12.89453 -1.44254,3.99755 -3.38463,7.6937 -5.82812,11.08984 l 7.5957,9.71094 10.37696,0 0,5.625 -17.70704,0 -6.05078,-7.69531 c -3.09116,3.11314 -6.38731,5.43194 -9.89062,6.95312 -3.50332,1.52119 -7.28694,2.28125 -11.34961,2.28125 -7.59543,0 -13.61711,-2.33616 -18.0625,-7.00586 -4.44539,-4.66968 -6.66797,-11.001 -6.66797,-18.99609 0,-4.70507 1.12001,-9.09186 3.35742,-13.16016 2.26686,-4.10368 5.681,-7.9426 10.24414,-11.51562 -1.50142,-2.15796 -2.60595,-4.29732 -3.3125,-6.41992 -0.70655,-2.15796 -1.05859,-4.40539 -1.05859,-6.74024 0,-5.62486 1.67708,-10.08107 5.0332,-13.37109 3.38556,-3.32538 7.97969,-4.98828 13.7793,-4.98828 z m -90.01563,16.96875 18.84375,0 0,3.45898 -6.14062,0 0,16.67774 25.01758,0 0,-16.67774 -6.14063,0 0,-3.45898 18.84375,0 0,3.45898 -6.14062,0 0,41.37305 6.14062,0 0,3.42773 -18.84375,0 0,-3.42773 6.14063,0 0,-20.75196 -25.01758,0 0,20.75196 6.14062,0 0,3.42773 -18.84375,0 0,-3.42773 6.14063,0 0,-41.37305 -6.14063,0 0,-3.45898 z m 143.75196,0 17.58398,0 0,3.45898 -5.36523,0 14.2539,37.04297 14.22266,-37.04297 -5.42969,0 0,-3.45898 14.15625,0 0,3.45898 -4.68555,0 -17.22851,44.80078 -5.56055,0 -17.13086,-44.80078 -4.8164,0 0,-3.45898 z m -65.13086,18.90234 c -2.56126,2.75937 -4.48982,5.74949 -5.78516,8.96875 -1.26591,3.18389 -1.89844,6.5791 -1.89844,10.1875 0,5.87251 1.69257,10.80715 5.07813,14.80469 3.38556,3.96217 7.61021,5.94336 12.67383,5.94336 3.00284,0 5.82895,-0.61924 8.47851,-1.85742 2.67901,-1.27356 5.06409,-3.11198 7.1543,-5.51758 l -25.70117,-32.5293 z"
       id="path4448"
       inkscape:connector-curvature="0"
       inkscape:export-filename="/Users/vishal/builds/hemawedsvishal.com/assets/monogram_large.png"
       inkscape:export-xdpi="16.747229"
       inkscape:export-ydpi="16.747229" />
    <g
       id="g4934"
       transform="translate(-391.98283,696.44105)"
       inkscape:export-filename="/Users/vishal/builds/hemawedsvishal.com/assets/logo.png"
       inkscape:export-xdpi="11.720748"
       inkscape:export-ydpi="11.720748">
      <g
         id="g5248"
         transform="translate(-118.35006,555.94118)">
        <g
           id="g4003"
           transform="matrix(0.52795926,0,0,0.52795926,1411.0428,-334.43735)"
           style="fill:#00d4aa;fill-opacity:1">
          <path
             inkscape:connector-curvature="0"
             id="path3893-9"
             d="m -613.86158,63.864429 c -4.77068,3.19851 -9.71185,6.18363 -14.78125,8.9375 -2.63143,1.42948 -5.26243,2.78971 -7.96875,4.09375 -2.70631,1.30403 -5.47269,2.5753 -8.25,3.75 -2.7773,1.1747 -5.56185,2.27102 -8.40625,3.3125 -2.84441,1.04148 -5.74863,2.00189 -8.65625,2.90625 -2.90762,0.90436 -5.84556,1.73663 -8.8125,2.5 -2.96693,0.76336 -5.94637,1.47528 -8.96875,2.09375 -3.02237,0.61847 -6.08233,1.1553 -9.15625,1.625 -3.07392,0.46968 -6.15968,0.83924 -9.28125,1.15625 -3.12157,0.31702 -6.30341,0.5583 -9.46875,0.71875 -3.16533,0.16045 -6.32604,0.25 -9.53125,0.25 -3.20521,0 -6.39717,-0.0896 -9.5625,-0.25 -3.16534,-0.16045 -6.28468,-0.40173 -9.40625,-0.71875 -3.12157,-0.31701 -6.23858,-0.68658 -9.3125,-1.15625 -3.07392,-0.4697 -6.13388,-1.00653 -9.15625,-1.625 -3.02238,-0.61847 -6.03307,-1.33039 -9,-2.09375 -2.96694,-0.76337 -5.90488,-1.59564 -8.8125,-2.5 -2.90762,-0.90436 -5.74934,-1.86477 -8.59375,-2.90625 -2.8444,-1.04148 -5.6602,-2.1378 -8.4375,-3.3125 -2.77732,-1.17471 -5.54372,-2.44597 -8.25002,-3.75 -2.5169,-1.21279 -4.9843,-2.49247 -7.4375,-3.8125 l -3.4375,-32.15625 22.34377,-107.5 78.21875,97.78125 94.125,32.65625 z"
             style="fill:#00d4aa;fill-opacity:1;stroke:none" />
          <path
             inkscape:connector-curvature="0"
             id="path3891-4"
             d="m -556.98658,-184.16682 c 1.01442,1.73739 2.16232,3.38411 3.125,5.15625 1.42949,2.63143 2.82096,5.29368 4.125,8 1.30403,2.70631 2.51279,5.44144 3.6875,8.21875 1.1747,2.7773 2.30227,5.5931 3.34375,8.4375 1.04148,2.84441 2.03313,5.74863 2.9375,8.65625 0.90436,2.90762 1.73664,5.84556 2.5,8.8125 0.76336,2.96693 1.44404,5.94637 2.0625,8.96875 0.61847,3.02237 1.15531,6.05108 1.625,9.125 0.46968,3.07392 0.87049,6.19093 1.1875,9.3125 0.31702,3.12157 0.5583,6.24091 0.71875,9.40625 0.16045,3.165329 0.25,6.388539 0.25,9.593749 0,3.20521 -0.0896,6.39717 -0.25,9.5625 -0.16045,3.16534 -0.40173,6.28468 -0.71875,9.40625 -0.31701,3.12157 -0.71782,6.23858 -1.1875,9.3125 -0.46969,3.07392 -1.00653,6.10263 -1.625,9.125 -0.61846,3.02238 -1.29914,6.00182 -2.0625,8.96875 -0.76336,2.96694 -1.59564,5.90488 -2.5,8.8125 -0.90437,2.90762 -1.89602,5.81184 -2.9375,8.65625 -1.04148,2.8444 -2.16905,5.6602 -3.34375,8.4375 -1.17471,2.77731 -2.38347,5.51244 -3.6875,8.2187496 -1.30404,2.70632 -2.69551,5.39982 -4.125,8.03125 -2.85896,5.26287 -5.94384,10.34124 -9.28125,15.2812504 -3.3374,4.94001 -6.90276,9.72647 -10.6875,14.3125 -3.78473,4.58604 -7.79906,8.98656 -12,13.1875 -2.10295,2.10295 -4.39551,4.00402 -6.59375,6 l -67,-18.46875 -71.40625,-65.71875 -53.96875,-35.96875 9.40625,-45.312499 173.96875,-29 44.4375,-36.53125 z"
             style="fill:#00d4aa;fill-opacity:1;stroke:none" />
          <path
             inkscape:connector-curvature="0"
             id="path3889-1"
             d="m -764.17408,-270.19807 c 0.19855,-0.0518 0.39493,-0.1051 0.59375,-0.15625 2.96693,-0.76336 5.97762,-1.47529 9,-2.09375 3.02237,-0.61847 6.08233,-1.15531 9.15625,-1.625 3.07392,-0.46968 6.19093,-0.83924 9.3125,-1.15625 3.12157,-0.31702 6.24091,-0.5583 9.40625,-0.71875 3.16533,-0.16045 6.35729,-0.25 9.5625,-0.25 3.20521,0 6.36592,0.0896 9.53125,0.25 3.16534,0.16045 6.34718,0.40173 9.46875,0.71875 3.12157,0.31701 6.20733,0.68657 9.28125,1.15625 3.07392,0.46969 6.13388,1.00653 9.15625,1.625 3.02238,0.61846 6.00182,1.33039 8.96875,2.09375 2.96694,0.76336 5.90488,1.59564 8.8125,2.5 2.90762,0.90437 5.81184,1.86477 8.65625,2.90625 2.8444,1.04148 5.62895,2.16905 8.40625,3.34375 2.77731,1.17471 5.54369,2.41472 8.25,3.71875 2.70632,1.30404 5.33732,2.66426 7.96875,4.09375 5.26287,2.85896 10.40374,5.94384 15.34375,9.28125 4.94001,3.3374 9.69522,6.93401 14.28125,10.71875 4.58604,3.78473 8.98656,7.76781 13.1875,11.96875 3.5338,3.5338 6.85069,7.28237 10.09375,11.09375 l -102.8125,54.5 -93.625,22.09375 9.34375,-44.9375 -1.34375,-91.125 z"
             style="fill:#00d4aa;fill-opacity:1;stroke:none" />
          <path
             inkscape:connector-curvature="0"
             id="path3887-9"
             d="m -845.5803,43.426929 c -0.9333,-0.89292 -1.9617,-1.68037 -2.875,-2.59375 -4.201,-4.20093 -8.1841,-8.60146 -11.9688,-13.1875 -3.7847,-4.58603 -7.3813,-9.37249 -10.7187,-14.3125 -3.3374,-4.9400104 -6.4536,-10.0183804 -9.3125,-15.2812504 -1.4295,-2.63143 -2.7897,-5.32493 -4.0938,-8.03125 -1.304,-2.7063096 -2.544,-5.4414396 -3.7187,-8.2187496 -1.1747,-2.7773 -2.2711,-5.5931 -3.3125,-8.4375 -1.0415,-2.84441 -2.0019,-5.74863 -2.9063,-8.65625 -0.9043,-2.90762 -1.7366,-5.84556 -2.5,-8.8125 -0.7633,-2.96693 -1.4753,-5.94637 -2.0937,-8.96875 -0.6185,-3.02237 -1.1553,-6.05108 -1.625,-9.125 -0.4697,-3.07392 -0.8705,-6.19093 -1.1875,-9.3125 -0.3171,-3.12157 -0.5583,-6.24091 -0.7188,-9.40625 -0.1604,-3.16533 -0.25,-6.35729 -0.25,-9.5625 0,-3.20521 0.09,-6.42842 0.25,-9.593749 0.1605,-3.16534 0.4017,-6.28468 0.7188,-9.40625 0.317,-3.12157 0.7178,-6.23858 1.1875,-9.3125 0.4697,-3.07392 1.0065,-6.10263 1.625,-9.125 0.6184,-3.02238 1.3304,-6.00182 2.0937,-8.96875 0.7634,-2.96694 1.5957,-5.90488 2.5,-8.8125 0.9044,-2.90762 1.8648,-5.81184 2.9063,-8.65625 1.0414,-2.8444 2.1378,-5.6602 3.3125,-8.4375 1.1747,-2.77731 2.4147,-5.51244 3.7187,-8.21875 1.3041,-2.70632 2.6643,-5.36857 4.0938,-8 2.8589,-5.26287 5.9751,-10.37249 9.3125,-15.3125 3.3374,-4.94001 6.934,-9.72647 10.7187,-14.3125 3.7847,-4.58604 7.7678,-8.98656 11.9688,-13.1875 4.2009,-4.20094 8.6014,-8.18402 13.1875,-11.96875 4.586,-3.78474 9.3725,-7.38135 14.3125,-10.71875 4.94,-3.33741 10.0183,-6.42229 15.2812,-9.28125 2.6314,-1.42949 5.2937,-2.78971 8,-4.09375 0.9204,-0.4435 1.8825,-0.82336 2.8125,-1.25 l 6.31252,142.90625 -57.03122,159.656249 z"
             style="fill:#00d4aa;fill-opacity:1;stroke:none" />
          <path
             inkscape:connector-curvature="0"
             id="path3884-7"
             d="m -584.51783,74.051929 16.53125,5.71875 58.90625,53.656271 c -54.5724,50.7213 -127.67846,81.7812 -208.0625,81.7812 -25.41304,0 -50.08045,-3.1571 -73.68747,-9 l -11.0313,-102.99997 c 0.8202,0.36052 1.6129,0.77621 2.4375,1.125 3.1619,1.33736 6.3555,2.59556 9.59377,3.78125 3.23826,1.18569 6.50227,2.28291 9.8125,3.3125 3.31023,1.02962 6.65349,1.97472 10.03125,2.84372 3.37776,0.8691 6.80913,1.6709 10.25,2.375 3.44087,0.7041 6.9067,1.3091 10.40625,1.8438 3.49955,0.5347 7.03995,0.9828 10.59375,1.3437 3.5538,0.3609 7.11512,0.6299 10.71875,0.8125 3.60363,0.1827 7.22598,0.2813 10.875,0.2813 3.64902,0 7.27137,-0.099 10.875,-0.2813 3.60363,-0.1826 7.1962,-0.4516 10.75,-0.8125 3.5538,-0.3609 7.0942,-0.809 10.59375,-1.3437 3.49955,-0.5347 6.96538,-1.1397 10.40625,-1.8438 3.44087,-0.7041 6.84099,-1.5059 10.21875,-2.375 3.37776,-0.869 6.72102,-1.8141 10.03125,-2.84372 3.31023,-1.02959 6.60549,-2.12681 9.84375,-3.3125 3.23826,-1.18569 6.43188,-2.44389 9.59375,-3.78125 3.16187,-1.33736 6.29395,-2.7654 9.375,-4.25 3.08105,-1.484601 6.09795,-3.028831 9.09375,-4.656251 5.9916,-3.25483 11.81346,-6.79423 17.4375,-10.59375 4.97591,-3.36165 9.74334,-7.01643 14.40625,-10.78125 z"
             style="fill:#00d4aa;fill-opacity:1;stroke:none" />
          <path
             inkscape:connector-curvature="0"
             id="path3880-9"
             d="m -536.70533,-200.72932 61,-31.21875 23.03125,-11.8125 c 26.18156,45.07366 41.25,97.40241 41.25,153.281249 0,72.36535 -25.19075,138.80099 -67.21875,191.156251 l -15.0625,-26.625001 -70.0625,-19.3125 c 3.33189,-3.51945 6.69762,-7.0135 9.78125,-10.75 4.30879,-5.22105 8.38798,-10.65721 12.1875,-16.28125 3.79952,-5.62404 7.30767,-11.41465 10.5625,-17.40625 1.62742,-2.9958004 3.2029,-6.0439504 4.6875,-9.1250004 1.4846,-3.08105 2.88139,-6.21313 4.21875,-9.375 1.33736,-3.1618696 2.59556,-6.3554896 3.78125,-9.5937496 1.18569,-3.23826 2.31416,-6.53352 3.34375,-9.84375 1.02959,-3.31023 1.97469,-6.65349 2.84375,-10.03125 0.86906,-3.37776 1.6709,-6.77788 2.375,-10.21875 0.7041,-3.44087 1.30903,-6.9067 1.84375,-10.40625 0.53472,-3.49955 0.98284,-7.03995 1.34375,-10.59375 0.36091,-3.5538 0.62983,-7.11512 0.8125,-10.71875 0.18267,-3.60363 0.28125,-7.22598 0.28125,-10.875 0,-3.64902 -0.0986,-7.30262 -0.28125,-10.906249 -0.18267,-3.60363 -0.45159,-7.16495 -0.8125,-10.71875 -0.36091,-3.5538 -0.80903,-7.0942 -1.34375,-10.59375 -0.53472,-3.49955 -1.13965,-6.96538 -1.84375,-10.40625 -0.7041,-3.44087 -1.50594,-6.84099 -2.375,-10.21875 -0.86906,-3.37776 -1.81416,-6.72102 -2.84375,-10.03125 -1.02959,-3.31023 -2.15806,-6.60549 -3.34375,-9.84375 -1.18569,-3.23826 -2.44389,-6.43188 -3.78125,-9.59375 -1.33736,-3.16187 -2.73415,-6.29395 -4.21875,-9.375 -1.4846,-3.08105 -3.06008,-6.09795 -4.6875,-9.09375 -1.74631,-3.21467 -3.57072,-6.35615 -5.46875,-9.46875 z"
             style="fill:#00d4aa;fill-opacity:1;stroke:none" />
          <path
             inkscape:connector-curvature="0"
             id="path3876-3"
             d="m -764.54908,-296.51057 -1.15625,-79.71875 -2.15625,-15.6875 c 16.50536,-2.75753 33.43052,-4.28125 50.71875,-4.28125 109.31324,0 205.1737,57.40998 259.21875,143.6875 l -0.625,0.5625 -93.0625,30.15625 c -0.82425,-1.0367 -1.53284,-2.16703 -2.375,-3.1875 -4.30879,-5.22105 -8.87362,-10.24862 -13.65625,-15.03125 -4.78263,-4.78263 -9.77895,-9.31621 -15,-13.625 -5.22105,-4.30879 -10.65721,-8.38798 -16.28125,-12.1875 -5.62404,-3.79952 -11.4459,-7.33892 -17.4375,-10.59375 -2.9958,-1.62742 -6.0127,-3.17165 -9.09375,-4.65625 -3.08105,-1.4846 -6.21313,-2.88139 -9.375,-4.21875 -3.16187,-1.33736 -6.35549,-2.62681 -9.59375,-3.8125 -3.23826,-1.18569 -6.53352,-2.28291 -9.84375,-3.3125 -3.31023,-1.02962 -6.65349,-1.97475 -10.03125,-2.84375 -3.37776,-0.8691 -6.77788,-1.6709 -10.21875,-2.375 -3.44087,-0.7041 -6.9067,-1.30905 -10.40625,-1.84375 -3.49955,-0.5347 -7.03995,-0.98285 -10.59375,-1.34375 -3.5538,-0.3609 -7.14637,-0.6299 -10.75,-0.8125 -3.60363,-0.1827 -7.22598,-0.28125 -10.875,-0.28125 -3.64902,0 -7.27137,0.099 -10.875,0.28125 -3.60363,0.1826 -7.16495,0.4516 -10.71875,0.8125 -3.5538,0.3609 -7.0942,0.80905 -10.59375,1.34375 -3.49955,0.5347 -6.96538,1.13965 -10.40625,1.84375 -1.61626,0.33073 -3.205,0.7543 -4.8125,1.125 z"
             style="fill:#00d4aa;fill-opacity:1;stroke:none" />
          <path
             inkscape:connector-curvature="0"
             id="path3872-5"
             d="m -827.2991,194.67695 c -114.3962,-44.2082 -195.5625,-155.160371 -195.5625,-285.156271 0,-139.956949 94.0912,-257.849609 222.4375,-294.124999 l 4.3438,98 c -1.1084,0.45138 -2.2436,0.84716 -3.3438,1.3125 -3.1619,1.33736 -6.2939,2.73415 -9.375,4.21875 -3.081,1.4846 -6.1292,3.02883 -9.125,4.65625 -5.9916,3.25483 -11.7822,6.79423 -17.4062,10.59375 -5.6241,3.79952 -11.0602,7.87871 -16.2813,12.1875 -5.221,4.30879 -10.2486,8.84237 -15.0312,13.625 -4.7827,4.78263 -9.3162,9.8102 -13.625,15.03125 -4.3088,5.22105 -8.388,10.65721 -12.1875,16.28125 -3.7996,5.62404 -7.339,11.4459 -10.5938,17.4375 -1.6274,2.9958 -3.1716,6.0127 -4.6562,9.09375 -1.4846,3.08105 -2.9127,6.21313 -4.25,9.375 -1.3374,3.16187 -2.5956,6.35549 -3.7813,9.59375 -1.1857,3.23826 -2.2829,6.53352 -3.3125,9.84375 -1.0296,3.31023 -1.9747,6.65349 -2.8437,10.03125 -0.8691,3.37776 -1.6709,6.77788 -2.375,10.21875 -0.7041,3.44087 -1.3091,6.9067 -1.8438,10.40625 -0.5347,3.49955 -0.9828,7.03995 -1.3437,10.59375 -0.3609,3.5538 -0.6611,7.11512 -0.8438,10.71875 -0.1827,3.603629 -0.25,7.257229 -0.25,10.906249 0,3.64902 0.067,7.27137 0.25,10.875 0.1827,3.60363 0.4829,7.16495 0.8438,10.71875 0.3609,3.5538 0.809,7.0942 1.3437,10.59375 0.5347,3.49955 1.1397,6.96538 1.8438,10.40625 0.7041,3.44087 1.5059,6.84099 2.375,10.21875 0.869,3.37776 1.8141,6.72102 2.8437,10.03125 1.0296,3.31023 2.1268,6.60549 3.3125,9.84375 1.1857,3.23826 2.4439,6.43188 3.7813,9.5937496 1.3373,3.16187 2.7654,6.29395 4.25,9.375 1.4846,3.08105 3.0288,6.1292 4.6562,9.1250004 3.2548,5.9916 6.7942,11.78221 10.5938,17.40625 3.7995,5.62404 7.8787,11.0602 12.1875,16.28125 4.3088,5.22105 8.8423,10.24862 13.625,15.03125 4.7826,4.78263 9.8102,9.31621 15.0312,13.625 3.3294,2.74761 6.8778,5.23335 10.375,7.78125 l 13.9375,114.250021 z"
             style="fill:#00d4aa;fill-opacity:1;stroke:none" />
        </g>
        <path
           style="color:#000000;display:inline;overflow:visible;visibility:visible;fill:#ff7f2a;fill-opacity:1;fill-rule:nonzero;stroke:none;stroke-width:1.40938902px;marker:none;enable-background:accumulate"
           d="m 1186.5379,-203.61581 16.5877,-65.50147 -65.0134,18.38842 10.6609,10.37192 c -72.1781,61.25515 -180.48189,58.71996 -249.71979,-8.64111 -49.30023,-47.96386 -66.23466,-116.6151 -50.5402,-178.83464 7.726,-30.62929 23.31948,-59.70676 46.92926,-83.97714 l 0.008,-0.008 c 71.57794,-73.57227 189.23971,-75.18889 262.81181,-3.61096 43.8079,42.62044 62.0559,101.57986 54.5703,157.84141 l -13.9326,-3.4721 18.616,64.94925 46.9356,-48.59847 -13.4665,-3.36428 c 10.6061,-69.39743 -11.2891,-142.70602 -65.4449,-195.39381 -89.0582,-86.64415 -231.48353,-84.6873 -318.12771,4.37097 l -0.008,0.008 c -28.57742,29.3786 -47.46365,64.57223 -56.81649,101.64623 -19.0004,75.31653 1.50834,158.42012 61.18745,216.4815 84.7341,82.43728 217.78856,84.66194 305.13616,7.97873 l 9.6264,9.36555 z"
           id="path4114"
           inkscape:connector-curvature="0" />
      </g>
    </g>
  </g>
  <g
     inkscape:groupmode="layer"
     id="layer4"
     inkscape:label="Text"
     style="display:inline">
    <g
       id="g4587">
      <path
         id="path4583"
         d="m 403.3418,408.49805 0,3.45898 4.8164,0 17.13086,44.80078 5.56055,0 17.22851,-44.80078 4.68555,0 0,-3.45898 -14.15625,0 0,3.45898 5.42969,0 L 429.81445,449 l -14.2539,-37.04297 5.36523,0 0,-3.45898 -17.58398,0 z"
         style="fill:#ffffff;fill-rule:evenodd;stroke:none;stroke-width:1px;stroke-linecap:butt;stroke-linejoin:miter;stroke-opacity:1"
         inkscape:connector-curvature="0" />
      <path
         id="path4581"
         d="m 403.3418,408.49805 17.58398,0 0,3.45898 -5.36523,0 14.2539,37.04297 14.22266,-37.04297 -5.42969,0 0,-3.45898 14.15625,0 0,3.45898 -4.68555,0 -17.22851,44.80078 -5.56055,0 -17.13086,-44.80078 -4.8164,0 0,-3.45898 z"
         style="fill:#ffffff;fill-rule:evenodd;stroke:none;stroke-width:1px;stroke-linecap:butt;stroke-linejoin:miter;stroke-opacity:1"
         inkscape:connector-curvature="0" />
      <path
         id="path4579"
         d="m 259.58984,408.49805 0,3.45898 6.14063,0 0,41.37305 -6.14063,0 0,3.42773 18.84375,0 0,-3.42773 -6.14062,0 0,-20.75196 25.01758,0 0,20.75196 -6.14063,0 0,3.42773 18.84375,0 0,-3.42773 -6.14062,0 0,-41.37305 6.14062,0 0,-3.45898 -18.84375,0 0,3.45898 6.14063,0 0,16.67774 -25.01758,0 0,-16.67774 6.14062,0 0,-3.45898 -18.84375,0 z"
         style="fill:#ffffff;fill-rule:evenodd;stroke:none;stroke-width:1px;stroke-linecap:butt;stroke-linejoin:miter;stroke-opacity:1"
         inkscape:connector-curvature="0" />
      <path
         id="path4577"
         d="m 349.60547,391.5293 c -1.4499,0 -2.82388,0.10464 -4.12305,0.3125 -1.29917,0.20785 -2.52353,0.51985 -3.67187,0.93554 -1.14834,0.4157 -2.22134,0.93507 -3.21875,1.5586 -0.99742,0.62353 -1.91924,1.35029 -2.76563,2.18164 -0.83903,0.8225 -1.57394,1.71723 -2.20312,2.68554 -0.62918,0.96832 -1.15288,2.0108 -1.57227,3.125 -0.41939,1.11421 -0.73369,2.30038 -0.94336,3.56055 -0.20966,1.26017 -0.31445,2.59379 -0.31445,4 0,1.16743 0.0873,2.31209 0.26367,3.43555 0.17633,1.12346 0.44165,2.22571 0.79492,3.30469 0.35328,1.0613 0.8053,2.12735 1.35742,3.19726 0.55213,1.06991 1.20437,2.14368 1.95508,3.22266 -2.28157,1.78651 -4.27513,3.63927 -5.98242,5.55859 -1.70728,1.91932 -3.12829,3.90519 -4.26172,5.95703 -1.1187,2.03415 -1.9579,4.14843 -2.51758,6.3418 -0.55967,2.19337 -0.83984,4.46582 -0.83984,6.81836 0,1.99877 0.13819,3.89276 0.41602,5.68359 0.27782,1.79084 0.69434,3.47759 1.25,5.06055 0.55566,1.58296 1.25048,3.06234 2.08398,4.4375 0.8335,1.37516 1.80662,2.64703 2.91797,3.81445 1.11135,1.16743 2.32056,2.18876 3.62891,3.06446 1.30834,0.87569 2.71544,1.60557 4.2207,2.18945 1.50526,0.58388 3.10845,1.02247 4.81054,1.31445 1.7021,0.29198 3.50349,0.4375 5.40235,0.4375 2.03133,0 3.99311,-0.19015 5.88476,-0.57031 1.89166,-0.38016 3.71319,-0.95034 5.46485,-1.71094 1.75165,-0.76059 3.45126,-1.71991 5.09961,-2.8789 1.64834,-1.15899 3.24543,-2.51765 4.79101,-4.07422 l 6.05078,7.69531 17.70704,0 0,-5.625 -10.37696,0 -7.5957,-9.71094 c 1.22174,-1.69807 2.31779,-3.47206 3.28906,-5.32031 0.97128,-1.84825 1.81779,-3.77076 2.53906,-5.76953 0.73599,-1.99878 1.35056,-4.07359 1.84375,-6.22266 0.4932,-2.14907 0.865,-4.37241 1.11524,-6.67187 l 7.5957,0 0,-5.67969 -20.88672,0 0,5.67969 7.94727,0 c -0.1472,1.85726 -0.40373,3.66121 -0.77149,5.41211 -0.36776,1.75089 -0.84675,3.44874 -1.43554,5.09375 -0.57408,1.62731 -1.25779,3.20151 -2.05274,4.72265 -0.79494,1.52115 -1.70113,2.98923 -2.71679,4.4043 L 347,423.63281 c -1.58974,-1.99877 -2.90781,-3.76306 -3.95312,-5.29297 -1.04532,-1.5299 -1.81789,-2.82542 -2.31836,-3.88672 -0.50048,-1.07897 -0.87659,-2.15716 -1.12696,-3.23632 -0.25037,-1.07916 -0.375,-2.1593 -0.375,-3.23828 0,-1.59195 0.23601,-3.03332 0.70703,-4.32422 0.47103,-1.29091 1.17708,-2.43134 2.11914,-3.42188 0.94207,-1.00823 2.02862,-1.76524 3.25782,-2.26953 1.22919,-0.50429 2.60104,-0.75586 4.11718,-0.75586 1.61918,0 3.06903,0.24715 4.34961,0.74219 1.28059,0.49504 2.39192,1.23797 3.33399,2.22851 0.94206,0.99055 1.7011,2.20664 2.27539,3.64844 0.57429,1.4418 0.96385,3.10931 1.16992,5.00195 l 4.99024,0 0,-13.6914 c -3.38557,-1.20281 -6.40317,-2.10368 -9.05274,-2.70508 -2.62013,-0.60139 -4.91622,-0.90234 -6.88867,-0.90234 z m -11.39453,35.87109 25.70117,32.5293 c -1.04511,1.2028 -2.16305,2.26409 -3.35547,3.18359 -1.19242,0.9195 -2.45932,1.69721 -3.79883,2.33399 -1.32478,0.61909 -2.69434,1.08299 -4.10742,1.39257 -1.41308,0.30959 -2.86967,0.46485 -4.37109,0.46485 -1.26591,0 -2.4796,-0.12345 -3.64063,-0.3711 -1.16103,-0.24764 -2.27002,-0.61995 -3.32617,-1.11523 -1.05615,-0.49528 -2.05849,-1.11451 -3.00977,-1.85742 -0.95127,-0.74292 -1.85087,-1.60907 -2.69726,-2.59961 -0.84639,-0.99939 -1.58788,-2.0573 -2.22266,-3.17383 -0.63477,-1.11653 -1.16277,-2.29168 -1.58593,-3.52539 -0.42317,-1.23371 -0.74155,-2.52605 -0.95313,-3.87695 -0.21158,-1.35091 -0.31641,-2.76039 -0.31641,-4.22852 0,-1.8042 0.15824,-3.55607 0.47461,-5.25391 0.31637,-1.69783 0.79088,-3.34164 1.42383,-4.93359 0.64767,-1.60963 1.45375,-3.16139 2.41797,-4.65625 0.96422,-1.49486 2.08656,-2.93281 3.36719,-4.3125 z"
         style="fill:#ffffff;fill-rule:evenodd;stroke:none;stroke-width:1px;stroke-linecap:butt;stroke-linejoin:miter;stroke-opacity:1"
         inkscape:connector-curvature="0" />
    </g>
    <g
       inkscape:groupmode="layer"
       id="layer6"
       inkscape:label="Text 1"
       style="display:inline">
      <g
         transform="matrix(1.6549711,0,0,1.6549711,-29.936814,-14.079887)"
         id="g4502"
         style="display:inline;fill:#b3b3b3"
         inkscape:export-filename="/Users/vishal/builds/hemawedsvishal.com/assets/h-and-v.png"
         inkscape:export-xdpi="23.294924"
         inkscape:export-ydpi="23.294924">
        <g
           style="font-style:normal;font-variant:normal;font-weight:normal;font-stretch:normal;font-size:40px;line-height:125%;font-family:serif;-inkscape-font-specification:serif;letter-spacing:0px;word-spacing:0px;fill:#b3b3b3;fill-opacity:1;stroke:none;stroke-width:1px;stroke-linecap:butt;stroke-linejoin:miter;stroke-opacity:1"
           id="g4504">
          <path
             inkscape:connector-curvature="0"
             d="m 126.27026,331.54846 8.61328,22.38281 8.59375,-22.38281 -3.28125,0 0,-2.08984 8.55468,0 0,2.08984 -2.83203,0 -10.41015,27.07031 -3.35938,0 -10.35156,-27.07031 -2.91016,0 0,-2.08984 10.625,0 0,2.08984 -3.24218,0 z"
             style="fill:#b3b3b3"
             id="path4506" />
        </g>
        <g
           style="font-style:normal;font-variant:normal;font-weight:normal;font-stretch:normal;font-size:40px;line-height:125%;font-family:serif;-inkscape-font-specification:serif;letter-spacing:0px;word-spacing:0px;fill:#b3b3b3;fill-opacity:1;stroke:none;stroke-width:1px;stroke-linecap:butt;stroke-linejoin:miter;stroke-opacity:1"
           id="g4508">
          <path
             inkscape:connector-curvature="0"
             d="m 32.026546,358.61877 0,-2.07031 3.710938,0 0,-25 -3.710938,0 0,-2.08984 11.386719,0 0,2.08984 -3.710937,0 0,10.07813 15.117187,0 0,-10.07813 -3.710937,0 0,-2.08984 11.386718,0 0,2.08984 -3.710937,0 0,25 3.710937,0 0,2.07031 -11.386718,0 0,-2.07031 3.710937,0 0,-12.53906 -15.117187,0 0,12.53906 3.710937,0 0,2.07031 -11.386719,0 z"
             style="fill:#b3b3b3"
             id="path4510" />
        </g>
        <g
           style="font-style:normal;font-variant:normal;font-weight:normal;font-stretch:normal;font-size:61.09633255px;line-height:125%;font-family:serif;-inkscape-font-specification:serif;letter-spacing:0px;word-spacing:0px;fill:#b3b3b3;fill-opacity:1;stroke:none;stroke-width:1px;stroke-linecap:butt;stroke-linejoin:miter;stroke-opacity:1"
           id="g4512"
           transform="matrix(0.89443371,0,0,1.0748069,7.500956,-23.878759)">
          <path
             style="fill:#b3b3b3"
             d="M 97.896361,357.65893 80.534024,339.3718 q -2.595401,2.32691 -3.908017,5.04164 -1.282785,2.6849 -1.282785,5.72778 0,4.95215 3.430703,8.32318 3.430702,3.34121 8.561839,3.34121 3.042884,0 5.727781,-1.04413 2.71473,-1.07396 4.832816,-3.10255 z m 18.495959,6.89124 -11.96271,0 -4.08701,-4.32567 q -3.13238,2.62524 -6.682411,3.90802 -3.550031,1.28278 -7.666873,1.28278 -7.696706,0 -12.201368,-3.93785 -4.504661,-3.93784 -4.504661,-10.67992 0,-3.96768 2.267247,-7.39838 2.297079,-3.46054 6.921069,-6.47359 -1.521442,-1.81976 -2.237415,-3.6097 -0.715972,-1.81976 -0.715972,-3.78868 0,-4.74332 3.40087,-7.51772 3.430702,-2.80422 9.307644,-2.80422 1.998757,0 4.653822,0.50714 2.684898,0.50715 6.1156,1.52145 l 0,7.6967 -3.371038,0 q -0.417651,-3.19204 -2.326911,-4.86265 -1.90926,-1.6706 -5.190802,-1.6706 -3.072716,0 -4.981976,1.70044 -1.90926,1.6706 -1.90926,4.3555 0,1.81976 1.014294,3.63952 1.014295,1.78994 4.236172,5.16097 l 15.393409,16.22872 q 2.05842,-2.38658 3.22188,-5.13114 1.19329,-2.77439 1.49161,-5.90677 l -5.3698,0 0,-3.19205 14.11063,0 0,3.19205 -5.13114,0 q -0.50714,3.87818 -1.99875,7.24922 -1.46178,3.37104 -3.93785,6.23493 l 5.13114,5.45929 7.01056,0 0,3.16221 z"
             id="path4514"
             inkscape:connector-curvature="0" />
        </g>
      </g>
      <g
         style="display:inline;fill:#b3b3b3"
         id="g4640"
         transform="matrix(1.6549711,0,0,1.6549711,43.934258,114.00849)">
        <g
           id="g4658"
           transform="translate(0.64710792,0)"
           inkscape:export-filename="/Users/vishal/builds/hemawedsvishal.com/public/assets/favicon.png"
           inkscape:export-xdpi="28.800003"
           inkscape:export-ydpi="28.800003">
          <rect
             y="340.53564"
             x="21.774555"
             height="30.212008"
             width="60.424015"
             id="rect4654"
             style="fill:#00d4aa;fill-opacity:1;stroke:none;stroke-width:1;stroke-miterlimit:4;stroke-dasharray:none;stroke-opacity:1" />
          <rect
             style="fill:#ff7f2a;fill-opacity:1;stroke:none;stroke-width:1;stroke-miterlimit:4;stroke-dasharray:none;stroke-opacity:1"
             id="rect4656"
             width="60.424015"
             height="30.212008"
             x="21.774557"
             y="310.32364" />
        </g>
        <g
           id="g4662"
           transform="translate(-5.1259954,-3.5030495)"
           inkscape:export-filename="/Users/vishal/builds/hemawedsvishal.com/public/assets/favicon.png"
           inkscape:export-xdpi="28.800003"
           inkscape:export-ydpi="28.800003"
           style="fill:#ffffff;stroke:#ffffff">
          <g
             transform="translate(-65.257932,0)"
             style="font-style:normal;font-variant:normal;font-weight:normal;font-stretch:normal;font-size:40px;line-height:125%;font-family:serif;-inkscape-font-specification:serif;letter-spacing:0px;word-spacing:0px;fill:#ffffff;fill-opacity:1;stroke:#ffffff;stroke-width:1px;stroke-linecap:butt;stroke-linejoin:miter;stroke-opacity:1"
             id="g4642">
            <path
               inkscape:connector-curvature="0"
               d="m 126.27026,331.54846 8.61328,22.38281 8.59375,-22.38281 -3.28125,0 0,-2.08984 8.55468,0 0,2.08984 -2.83203,0 -10.41015,27.07031 -3.35938,0 -10.35156,-27.07031 -2.91016,0 0,-2.08984 10.625,0 0,2.08984 -3.24218,0 z"
               style="fill:#ffffff;stroke:#ffffff"
               id="path4644" />
          </g>
          <g
             style="font-style:normal;font-variant:normal;font-weight:normal;font-stretch:normal;font-size:40px;line-height:125%;font-family:serif;-inkscape-font-specification:serif;letter-spacing:0px;word-spacing:0px;fill:#ffffff;fill-opacity:1;stroke:#ffffff;stroke-width:1px;stroke-linecap:butt;stroke-linejoin:miter;stroke-opacity:1"
             id="g4646">
            <path
               inkscape:connector-curvature="0"
               d="m 32.026546,358.61877 0,-2.07031 3.710938,0 0,-25 -3.710938,0 0,-2.08984 11.386719,0 0,2.08984 -3.710937,0 0,10.07813 15.117187,0 0,-10.07813 -3.710937,0 0,-2.08984 11.386718,0 0,2.08984 -3.710937,0 0,25 3.710937,0 0,2.07031 -11.386718,0 0,-2.07031 3.710937,0 0,-12.53906 -15.117187,0 0,12.53906 3.710937,0 0,2.07031 -11.386719,0 z"
               style="fill:#ffffff;stroke:#ffffff"
               id="path4648" />
          </g>
        </g>
      </g>
    </g>
  </g>
  <g
     inkscape:groupmode="layer"
     id="layer7"
     inkscape:label="colors"
     style="">
    <rect
       style="fill:#43d1de;stroke:none;stroke-width:10;stroke-miterlimit:4;stroke-dasharray:none;stroke-opacity:1;fill-opacity:1"
       id="rect4594"
       width="50.82872"
       height="56.928165"
       x="76.58194"
       y="337.37155" />
  </g>
</svg>
